<svg xmlns="http://www.w3.org/2000/svg" version="1.1" xmlns:xlink="http://www.w3.org/1999/xlink" xmlns:svgjs="http://svgjs.dev/svgjs" width="2000" height="666" viewBox="0 0 2000 666"><g transform="matrix(1,0,0,1,-1.2119944427919336,0.5675367383876164)"><svg viewBox="0 0 396 132" data-background-color="#ffffff" preserveAspectRatio="xMidYMid meet" height="666" width="2000" xmlns="http://www.w3.org/2000/svg" xmlns:xlink="http://www.w3.org/1999/xlink"><g id="tight-bounds" transform="matrix(1,0,0,1,0.23997489967280217,-0.11248475895970955)"><svg viewBox="0 0 395.52 132.22496951791945" height="132.22496951791945" width="395.52"><g><svg viewBox="0 0 630.3025418238537 210.71433651832072" height="132.22496951791945" width="395.52"><g transform="matrix(1,0,0,1,234.78254182385382,15.315489311190092)"><svg viewBox="0 0 395.52 180.08335789594054" height="180.08335789594054" width="395.52"><g id="textblocktransform"><svg viewBox="0 0 395.52 180.08335789594054" height="180.08335789594054" width="395.52" id="textblock"><g><svg viewBox="0 0 395.52 180.08335789594054" height="180.08335789594054" width="395.52"><path d="M394.594 38.624C392.735 19.932 387.435 14.735 387.435 14.735 371.165-4.518 350.86-0.368 332.619 2.398 300.414 2.51 268.339 6.623 236.208 8.828 168.767 9.165 100.749 3.632 33.643 17.277 27.339 21.465-6.54 18.1 1.121 41.017 3.129 50.55 10.456 61.13 10.232 69.878 11.236 71.411 12.631 67.897 13.226 70.103 15.309 76.047 18.711 73.243 21.501 76.757 17.614 86.141 20.403 93.954 23.062 102.142 18.377 104.273 12.371 103.263 9.675 110.329 9.396 115.451 7.89 114.479 6.235 114.255 5.026 114.105 2.59 114.666 2.999 116.273 4.394 121.769-1.594 124.947 2.162 130.33-0.422 136.162 3.948 141.209 3.353 147.527 3.278 148.799 3.687 149.883 4.338 150.182 7.22 151.789 3.018 154.93 3.464 158.332 33.029 181.585 65.104 165.51 95.394 176.202 103.259 168.725 97.346 178.856 100.489 177.286 102.943 175.454 104.728 183.043 107.499 178.744 107.927 177.51 107.276 174.594 108.8 175.155 109.6 175.454 110.307 175.379 110.418 173.66 110.586 171.08 109.117 172.688 108.726 171.342 112.947 164.538 111.906 180.725 115.866 180.053 115.68 178.071 114.528 175.23 116.889 175.604 119.232 172.762 119.306 170.407 121.389 176.8 121.463 178.183 121.835 179.155 122.43 179.828 128.938 172.875 135.409 182.296 142.233 179.155 146.417 175.716 150.433 181.025 154.672 179.716 156.16 178.669 157.666 176.8 159.098 179.94 176.632 180.613 195.319 177.809 211.943 180.053 256.364 175.865 303.836 181.772 350.674 176.239 361.719 174.108 373.192 171.08 383.958 168.65 383.958 168.65 392.679 161.996 392.679 132.087S394.538 105.918 394.817 82.103C395.096 58.289 396.398 57.317 394.538 38.624Z" opacity="1" fill="#03424c" data-fill-palette-color="tertiary"></path><g transform="matrix(1,0,0,1,55.76832,26.230666666666668)"><svg width="283.98335999999995" viewBox="-4.7 -35.7 88.45 40.3" height="127.6220245626072" data-palette-color="#ffffff"><path d="M8 0.6Q5.3 0.6 3.2-0.45 1.1-1.5-0.7-3.35L-0.7-3.35 1.1-5.25Q2.7-3.75 4.38-2.93 6.05-2.1 8.15-2.1L8.15-2.1Q11.05-2.1 12.8-3.63 14.55-5.15 14.55-7.7L14.55-7.7Q14.55-8.8 13.95-9.53 13.35-10.25 12.43-10.73 11.5-11.2 9.05-12.35L9.05-12.35Q6.8-13.35 5.53-14.08 4.25-14.8 3.5-15.85 2.75-16.9 2.75-18.4L2.75-18.4Q2.75-19 2.8-19.3L2.8-19.3Q3.15-22.2 5.38-23.93 7.6-25.65 10.95-25.65L10.95-25.65Q12.75-25.65 14.43-25.13 16.1-24.6 17.2-23.65L17.2-23.65 15.8-21.6Q13.9-22.95 11-22.95L11-22.95Q8.5-22.95 7.1-21.85 5.7-20.75 5.7-18.8L5.7-18.8Q5.7-17.8 6.3-17.13 6.9-16.45 7.73-16.03 8.55-15.6 10.8-14.55L10.8-14.55Q14.35-13 15.93-11.63 17.5-10.25 17.5-7.9L17.5-7.9Q17.5-7.2 17.45-6.85L17.45-6.85Q17-3.45 14.43-1.43 11.85 0.6 8 0.6L8 0.6ZM22.5-8.35Q22.9-11.35 24.62-13.83 26.35-16.3 29.1-17.7L29.1-17.7Q27.35-20.2 27.35-22.9L27.35-22.9Q27.35-25.2 28.6-27.25 29.85-29.3 31.9-30.5 33.95-31.7 36.25-31.7L36.25-31.7Q39-31.7 41.1-30.38 43.2-29.05 43.2-26.7L43.2-26.7Q43.2-24.85 42.05-23.53 40.9-22.2 39.2-22.2L39.2-22.2Q38.2-22.2 37.37-22.78 36.55-23.35 36.15-24.45L36.15-24.45 38.45-25.4Q38.5-25.2 38.72-25.03 38.95-24.85 39.2-24.85L39.2-24.85Q39.75-24.85 40.1-25.33 40.45-25.8 40.45-26.6L40.45-26.6Q40.45-27.85 39.32-28.43 38.2-29 36.25-29L36.25-29Q34.2-29 32.4-27.45 30.6-25.9 30.35-23.9L30.35-23.9Q30.3-23.55 30.3-22.9L30.3-22.9Q30.3-21.55 30.97-20.3 31.65-19.05 33.45-17.15L33.45-17.15 42.05-8Q44.55-11.85 45.05-15.95L45.05-15.95 45.3-17.85 47.9-17.85 47.6-15.65Q46.9-10.25 43.8-6.1L43.8-6.1 46.5-3.15Q46.6-3.05 46.8-2.85 47-2.65 47.17-2.55 47.35-2.45 47.55-2.45L47.55-2.45Q48.2-2.45 48.65-2.8L48.65-2.8 49.75-0.35Q48.7 0.4 47.5 0.4L47.5 0.4Q46.55 0.4 45.95 0 45.35-0.4 44.87-0.93 44.4-1.45 44.2-1.65L44.2-1.65 41.85-3.9Q39.8-1.75 37.22-0.63 34.65 0.5 31.75 0.5L31.75 0.5Q27.55 0.5 24.97-1.6 22.4-3.7 22.4-7.15L22.4-7.15Q22.4-7.55 22.5-8.35L22.5-8.35ZM25.4-8.3Q25.35-8 25.35-7.4L25.35-7.4Q25.35-4.95 27.12-3.53 28.9-2.1 31.8-2.1L31.8-2.1Q34.05-2.1 36.2-3.08 38.35-4.05 40.15-5.75L40.15-5.75 30.8-15.65Q28.4-14.55 27.07-12.78 25.75-11 25.4-8.3L25.4-8.3ZM64.3 0.5Q59.9 0.5 57.55-2.48 55.2-5.45 55.2-10.05L55.2-10.05Q55.2-11.25 55.35-12.45L55.35-12.45Q55.85-16.25 57.67-19.2 59.5-22.15 62.4-23.78 65.3-25.4 68.9-25.4L68.9-25.4Q71.59-25.4 74.75-24.95L74.75-24.95 77.7-24.95 75-4.2Q74.95-4 74.95-3.7L74.95-3.7Q74.95-2.25 76.2-2.25L76.2-2.25Q77.15-2.25 77.8-3.15L77.8-3.15 79.75-1.35Q78.84-0.3 77.92 0.1 77 0.5 75.9 0.5L75.9 0.5Q74.15 0.5 73-0.73 71.84-1.95 72.09-3.6L72.09-3.6Q70.65-1.55 68.65-0.53 66.65 0.5 64.3 0.5L64.3 0.5ZM64.45-2.2Q66.7-2.2 68.62-3.35 70.55-4.5 71.59-6.35L71.59-6.35Q72.59-7.8 72.75-9.5L72.75-9.5 74.55-22.5 71.34-22.6 68.65-22.7Q64.2-22.7 61.52-19.8 58.85-16.9 58.25-12.25L58.25-12.25Q58.1-11.15 58.1-10.05L58.1-10.05Q58.1-6.6 59.67-4.4 61.25-2.2 64.45-2.2L64.45-2.2Z" opacity="1" transform="matrix(1,0,0,1,0,0)" fill="#ffffff" class="wordmark-text-0" data-fill-palette-color="quaternary" id="text-0"></path></svg></g></svg></g></svg></g></svg></g><g><svg viewBox="0 0 210.02044372253732 210.71433651832072" height="210.71433651832072" width="210.02044372253732"><g><svg xmlns="http://www.w3.org/2000/svg" xml:space="preserve" viewBox="10.134945676439859 10.009318753559448 79.72988030483725 79.99330222972989" x="0" y="0" height="210.71433651832072" width="210.02044372253732" class="icon-icon-0" data-fill-palette-color="accent" id="icon-0"><path d="M10.167 28.358c0.01 0.044 0.005 0.088 0.021 0.132l22.696 60.861a1 1 0 0 0 1.291 0.587l23.061-8.729 12.525 4.52a1 1 0 0 0 0.766-0.036 1 1 0 0 0 0.515-0.569l18.765-52.776a1 1 0 0 0-0.603-1.275l-28.02-10.112-3.843-10.311c-0.016-0.044-0.051-0.077-0.073-0.118-0.032-0.059-0.061-0.117-0.105-0.169-0.04-0.047-0.087-0.083-0.135-0.122a1 1 0 0 0-0.166-0.119c-0.017-0.009-0.028-0.025-0.045-0.032-0.043-0.02-0.092-0.019-0.137-0.032-0.047-0.014-0.086-0.041-0.136-0.048-0.019-0.003-0.036 0.005-0.055 0.003-0.067-0.006-0.131 0.004-0.198 0.012-0.064 0.008-0.127 0.011-0.187 0.031-0.017 0.005-0.036 0.002-0.053 0.009l-45.279 17.14c-0.015 0.006-0.025 0.019-0.04 0.025-0.06 0.026-0.111 0.066-0.165 0.104-0.057 0.039-0.114 0.075-0.16 0.124-0.011 0.012-0.026 0.016-0.037 0.028-0.03 0.035-0.04 0.077-0.065 0.115-0.039 0.06-0.078 0.116-0.103 0.182-0.023 0.06-0.033 0.121-0.044 0.184s-0.024 0.123-0.023 0.188c0 0.069 0.016 0.134 0.032 0.203m44.166-9.873l-2.646-0.955a0.996 0.996 0 0 0-1.282 0.605l-1.64 4.612L19.303 33.9l-6.256-5.419 42.13-15.948zM34.407 87.71L13.43 31.459l5.015 4.343a1 1 0 0 0 1.009 0.18L47.887 25.22 31.641 70.912a1 1 0 0 0 0.603 1.275l22.1 7.976z m35.088-4.204L33.859 70.645l18.095-50.893L87.59 32.613z m-13.24-64.327l0.587-4.142 1.876 5.031z" fill="#f56607" data-fill-palette-color="accent"></path><path d="M57.45 59.775a9.8 9.8 0 0 0 3.356 0.598 9.8 9.8 0 0 0 4.134-0.925 9.76 9.76 0 0 0 5.072-5.535 9.76 9.76 0 0 0-0.313-7.501 9.71 9.71 0 0 0-5.518-5.075c-5.074-1.848-10.707 0.78-12.562 5.863a9.76 9.76 0 0 0 0.313 7.501 9.7 9.7 0 0 0 5.518 5.074m-2.289-14.846l2.123 0.775a12 12 0 0 0-1.249 2.15l-2.351-0.858a8 8 0 0 1 1.477-2.067m13.616 4.969a8 8 0 0 1-0.198 2.534l-2.365-0.863c0.242-0.85 0.374-1.669 0.429-2.449z m-2.123 6.12l-2.226-0.812c0.434-0.578 0.829-1.226 1.163-1.948l2.37 0.865a8 8 0 0 1-1.307 1.895m-9.528-5.849l2.472 0.902-0.764 2.093-1.98-0.723a9 9 0 0 1 0.272-2.272m4.546-4.78l-1.239-0.452a11.6 11.6 0 0 1 1.885-1.319z m-0.617 1.691l-0.839 2.3-2.474-0.903a10.3 10.3 0 0 1 1.318-2.125z m-2.839 7.775l-0.564 1.544a12 12 0 0 1-0.58-1.961z m1.691 0.617l1.278 0.466c-0.665 0.525-1.327 0.931-1.896 1.226z m0.618-1.691l0.764-2.093 2.61 0.952a9 9 0 0 1-1.264 1.911z m3.997-2.83l-2.616-0.955 0.839-2.3 2.125 0.775a10.3 10.3 0 0 1-0.348 2.48m-1.159-4.945l0.698-1.911c0.231 0.576 0.502 1.402 0.667 2.409z m-4.834-1.765l-1.668-0.609a8 8 0 0 1 3.714-1.067c-0.637 0.42-1.346 0.973-2.046 1.676m-3.105 5.307a10.8 10.8 0 0 0-0.364 2.239l-2.23-0.814a8 8 0 0 1 0.221-2.292z m-1.859 4.395a8 8 0 0 1-0.351-0.914l1.909 0.697c0.14 1.214 0.448 2.288 0.781 3.158a7.9 7.9 0 0 1-2.339-2.941m10.613 3.874a7.95 7.95 0 0 1-3.667 0.742 13 13 0 0 0 2.622-1.91l1.904 0.695a8 8 0 0 1-0.859 0.473m3.887-10.648c0.099 0.213 0.184 0.43 0.263 0.649l-1.695-0.619a13 13 0 0 0-0.495-2.629 8 8 0 0 1 1.927 2.599" fill="#f56607" data-fill-palette-color="accent"></path><path d="M71.707 58.013a13.23 13.23 0 0 1-15.589 4.951 13.22 13.22 0 0 1-8.628-12.427l0.358 0.439a0.997 0.997 0 0 0 1.406 0.143 1 1 0 0 0 0.143-1.407l-1.85-2.27a1 1 0 0 0-1.407-0.143l-2.27 1.851a1 1 0 0 0 1.264 1.551l0.355-0.29a15.22 15.22 0 0 0 9.93 14.428c1.754 0.653 3.563 0.968 5.349 0.968 4.931 0 9.681-2.398 12.591-6.667a1 1 0 0 0-1.652-1.127M48.129 41.938a1 1 0 1 0 1.655 1.125 13.23 13.23 0 0 1 15.597-4.964 13.22 13.22 0 0 1 8.625 12.149l-0.362-0.376a1 1 0 0 0-1.442 1.387l2.029 2.111c0.184 0.19 0.437 0.301 0.702 0.307h0.02a1 1 0 0 0 0.693-0.279l2.11-2.029a1 1 0 1 0-1.387-1.441l-0.365 0.351a15.22 15.22 0 0 0-9.925-14.053 15.23 15.23 0 0 0-17.95 5.712" fill="#f56607" data-fill-palette-color="accent"></path></svg></g></svg></g></svg></g><defs></defs></svg><rect width="395.52" height="132.22496951791945" fill="none" stroke="none" visibility="hidden"></rect></g></svg></g></svg>