<svg xmlns="http://www.w3.org/2000/svg" version="1.1" xmlns:xlink="http://www.w3.org/1999/xlink" xmlns:svgjs="http://svgjs.dev/svgjs" width="128" height="128" viewBox="0 0 128 128"><g transform="matrix(0.8046875,0,0,0.8046875,12.635321798658651,11.864489465553298)"><svg viewBox="0 0 95 96" data-background-color="#ffffff" preserveAspectRatio="xMidYMid meet" height="129" width="128" xmlns="http://www.w3.org/2000/svg" xmlns:xlink="http://www.w3.org/1999/xlink"><g id="tight-bounds" transform="matrix(1,0,0,1,-0.12481136769487478,0.2156358431008556)"><svg viewBox="0 0 95.1665763156465 95.481" height="95.481" width="95.1665763156465"><g><svg viewBox="0 0 95.1665763156465 95.481" height="95.481" width="95.1665763156465"><g><svg viewBox="0 0 95.1665763156465 95.481" height="95.481" width="95.1665763156465"><g id="textblocktransform"><svg viewBox="0 0 95.1665763156465 95.481" height="95.481" width="95.1665763156465" id="textblock"><g><svg viewBox="0 0 95.1665763156465 95.481" height="95.481" width="95.1665763156465"><g><svg viewBox="0 0 95.1665763156465 95.481" height="95.481" width="95.1665763156465"><g><svg xmlns="http://www.w3.org/2000/svg" xml:space="preserve" viewBox="10.134945676439859 10.009318753559448 79.72988030483725 79.99330222972989" x="0" y="0" height="95.481" width="95.1665763156465" class="icon-icon-0" data-fill-palette-color="accent" id="icon-0"><path d="M10.167 28.358c0.01 0.044 0.005 0.088 0.021 0.132l22.696 60.861a1 1 0 0 0 1.291 0.587l23.061-8.729 12.525 4.52a1 1 0 0 0 0.766-0.036 1 1 0 0 0 0.515-0.569l18.765-52.776a1 1 0 0 0-0.603-1.275l-28.02-10.112-3.843-10.311c-0.016-0.044-0.051-0.077-0.073-0.118-0.032-0.059-0.061-0.117-0.105-0.169-0.04-0.047-0.087-0.083-0.135-0.122a1 1 0 0 0-0.166-0.119c-0.017-0.009-0.028-0.025-0.045-0.032-0.043-0.02-0.092-0.019-0.137-0.032-0.047-0.014-0.086-0.041-0.136-0.048-0.019-0.003-0.036 0.005-0.055 0.003-0.067-0.006-0.131 0.004-0.198 0.012-0.064 0.008-0.127 0.011-0.187 0.031-0.017 0.005-0.036 0.002-0.053 0.009l-45.279 17.14c-0.015 0.006-0.025 0.019-0.04 0.025-0.06 0.026-0.111 0.066-0.165 0.104-0.057 0.039-0.114 0.075-0.16 0.124-0.011 0.012-0.026 0.016-0.037 0.028-0.03 0.035-0.04 0.077-0.065 0.115-0.039 0.06-0.078 0.116-0.103 0.182-0.023 0.06-0.033 0.121-0.044 0.184s-0.024 0.123-0.023 0.188c0 0.069 0.016 0.134 0.032 0.203m44.166-9.873l-2.646-0.955a0.996 0.996 0 0 0-1.282 0.605l-1.64 4.612L19.303 33.9l-6.256-5.419 42.13-15.948zM34.407 87.71L13.43 31.459l5.015 4.343a1 1 0 0 0 1.009 0.18L47.887 25.22 31.641 70.912a1 1 0 0 0 0.603 1.275l22.1 7.976z m35.088-4.204L33.859 70.645l18.095-50.893L87.59 32.613z m-13.24-64.327l0.587-4.142 1.876 5.031z" fill="#f56607" data-fill-palette-color="accent"></path><path d="M57.45 59.775a9.8 9.8 0 0 0 3.356 0.598 9.8 9.8 0 0 0 4.134-0.925 9.76 9.76 0 0 0 5.072-5.535 9.76 9.76 0 0 0-0.313-7.501 9.71 9.71 0 0 0-5.518-5.075c-5.074-1.848-10.707 0.78-12.562 5.863a9.76 9.76 0 0 0 0.313 7.501 9.7 9.7 0 0 0 5.518 5.074m-2.289-14.846l2.123 0.775a12 12 0 0 0-1.249 2.15l-2.351-0.858a8 8 0 0 1 1.477-2.067m13.616 4.969a8 8 0 0 1-0.198 2.534l-2.365-0.863c0.242-0.85 0.374-1.669 0.429-2.449z m-2.123 6.12l-2.226-0.812c0.434-0.578 0.829-1.226 1.163-1.948l2.37 0.865a8 8 0 0 1-1.307 1.895m-9.528-5.849l2.472 0.902-0.764 2.093-1.98-0.723a9 9 0 0 1 0.272-2.272m4.546-4.78l-1.239-0.452a11.6 11.6 0 0 1 1.885-1.319z m-0.617 1.691l-0.839 2.3-2.474-0.903a10.3 10.3 0 0 1 1.318-2.125z m-2.839 7.775l-0.564 1.544a12 12 0 0 1-0.58-1.961z m1.691 0.617l1.278 0.466c-0.665 0.525-1.327 0.931-1.896 1.226z m0.618-1.691l0.764-2.093 2.61 0.952a9 9 0 0 1-1.264 1.911z m3.997-2.83l-2.616-0.955 0.839-2.3 2.125 0.775a10.3 10.3 0 0 1-0.348 2.48m-1.159-4.945l0.698-1.911c0.231 0.576 0.502 1.402 0.667 2.409z m-4.834-1.765l-1.668-0.609a8 8 0 0 1 3.714-1.067c-0.637 0.42-1.346 0.973-2.046 1.676m-3.105 5.307a10.8 10.8 0 0 0-0.364 2.239l-2.23-0.814a8 8 0 0 1 0.221-2.292z m-1.859 4.395a8 8 0 0 1-0.351-0.914l1.909 0.697c0.14 1.214 0.448 2.288 0.781 3.158a7.9 7.9 0 0 1-2.339-2.941m10.613 3.874a7.95 7.95 0 0 1-3.667 0.742 13 13 0 0 0 2.622-1.91l1.904 0.695a8 8 0 0 1-0.859 0.473m3.887-10.648c0.099 0.213 0.184 0.43 0.263 0.649l-1.695-0.619a13 13 0 0 0-0.495-2.629 8 8 0 0 1 1.927 2.599" fill="#f56607" data-fill-palette-color="accent"></path><path d="M71.707 58.013a13.23 13.23 0 0 1-15.589 4.951 13.22 13.22 0 0 1-8.628-12.427l0.358 0.439a0.997 0.997 0 0 0 1.406 0.143 1 1 0 0 0 0.143-1.407l-1.85-2.27a1 1 0 0 0-1.407-0.143l-2.27 1.851a1 1 0 0 0 1.264 1.551l0.355-0.29a15.22 15.22 0 0 0 9.93 14.428c1.754 0.653 3.563 0.968 5.349 0.968 4.931 0 9.681-2.398 12.591-6.667a1 1 0 0 0-1.652-1.127M48.129 41.938a1 1 0 1 0 1.655 1.125 13.23 13.23 0 0 1 15.597-4.964 13.22 13.22 0 0 1 8.625 12.149l-0.362-0.376a1 1 0 0 0-1.442 1.387l2.029 2.111c0.184 0.19 0.437 0.301 0.702 0.307h0.02a1 1 0 0 0 0.693-0.279l2.11-2.029a1 1 0 1 0-1.387-1.441l-0.365 0.351a15.22 15.22 0 0 0-9.925-14.053 15.23 15.23 0 0 0-17.95 5.712" fill="#f56607" data-fill-palette-color="accent"></path></svg></g></svg></g></svg></g></svg></g></svg></g></svg></g><defs></defs></svg><rect width="95.1665763156465" height="95.481" fill="none" stroke="none" visibility="hidden"></rect></g></svg></g></svg>